<svg aria-hidden="true" style="position: absolute; width: 0; height: 0; overflow: hidden;" version="1.1" xmlns="http://www.w3.org/2000/svg" xmlns:xlink="http://www.w3.org/1999/xlink">
<defs>
<symbol id="icon-discord" viewBox="0 0 32 32">
<path d="M27.089 5.826c-1.881-0.888-4.066-1.59-6.354-1.997l-0.16-0.024c-0.005-0.001-0.012-0.002-0.018-0.002-0.037 0-0.069 0.020-0.086 0.051l-0 0.001c-0.281 0.5-0.593 1.153-0.811 1.666-2.46-0.368-4.907-0.368-7.316 0-0.218-0.524-0.541-1.166-0.824-1.666-0.018-0.030-0.051-0.051-0.088-0.051-0.006 0-0.011 0-0.017 0.001l0.001-0c-2.447 0.43-4.632 1.131-6.675 2.088l0.161-0.068c-0.018 0.008-0.033 0.021-0.043 0.037l-0 0c-4.149 6.198-5.285 12.243-4.727 18.214 0.003 0.031 0.019 0.057 0.041 0.075l0 0c2.737 2.010 5.388 3.23 7.991 4.039 0.009 0.003 0.019 0.004 0.030 0.004 0.034 0 0.064-0.016 0.082-0.041l0-0c0.615-0.841 1.164-1.727 1.635-2.659 0.007-0.013 0.011-0.029 0.011-0.046 0-0.043-0.027-0.080-0.066-0.095l-0.001-0c-0.87-0.33-1.699-0.733-2.496-1.19-0.031-0.018-0.051-0.051-0.051-0.089 0-0.033 0.016-0.063 0.040-0.082l0-0c0.168-0.126 0.336-0.256 0.496-0.389 0.017-0.014 0.039-0.023 0.063-0.023 0.015 0 0.029 0.003 0.041 0.009l-0.001-0c5.237 2.391 10.907 2.391 16.082 0 0.012-0.006 0.027-0.010 0.042-0.010 0.024 0 0.046 0.008 0.063 0.022l-0-0c0.16 0.132 0.328 0.264 0.497 0.39 0.025 0.019 0.041 0.049 0.041 0.082 0 0.037-0.020 0.070-0.049 0.088l-0 0c-0.705 0.421-1.528 0.821-2.385 1.151l-0.112 0.038c-0.039 0.015-0.066 0.052-0.066 0.095 0 0.017 0.004 0.033 0.012 0.047l-0-0.001c0.481 0.931 1.029 1.817 1.633 2.658 0.019 0.026 0.049 0.043 0.083 0.043 0.011 0 0.021-0.002 0.030-0.005l-0.001 0c2.615-0.809 5.266-2.029 8.003-4.039 0.023-0.017 0.039-0.043 0.042-0.073l0-0c0.667-6.903-1.118-12.899-4.731-18.214-0.009-0.017-0.023-0.031-0.041-0.038l-0.001-0zM10.693 20.442c-1.577 0-2.876-1.448-2.876-3.225s1.274-3.225 2.876-3.225c1.614 0 2.901 1.46 2.876 3.225 0 1.778-1.274 3.225-2.876 3.225zM21.326 20.442c-1.577 0-2.876-1.448-2.876-3.225s1.274-3.225 2.876-3.225c1.614 0 2.901 1.46 2.876 3.225 0 1.778-1.261 3.225-2.876 3.225z"></path>
</symbol>
<symbol id="icon-github" viewBox="0 0 32 32">
<path d="M16 0.396c-8.84 0-16 7.164-16 16 0 7.071 4.584 13.067 10.94 15.18 0.8 0.151 1.093-0.344 1.093-0.769 0-0.38-0.013-1.387-0.020-2.72-4.451 0.965-5.389-2.147-5.389-2.147-0.728-1.847-1.78-2.34-1.78-2.34-1.449-0.992 0.112-0.972 0.112-0.972 1.607 0.112 2.451 1.648 2.451 1.648 1.427 2.447 3.745 1.74 4.66 1.331 0.144-1.035 0.556-1.74 1.013-2.14-3.553-0.4-7.288-1.776-7.288-7.907 0-1.747 0.62-3.173 1.647-4.293-0.18-0.404-0.72-2.031 0.14-4.235 0 0 1.34-0.429 4.4 1.64 1.28-0.356 2.64-0.532 4-0.54 1.36 0.008 2.72 0.184 4 0.54 3.040-2.069 4.38-1.64 4.38-1.64 0.86 2.204 0.32 3.831 0.16 4.235 1.020 1.12 1.64 2.547 1.64 4.293 0 6.147-3.74 7.5-7.3 7.893 0.56 0.48 1.080 1.461 1.080 2.96 0 2.141-0.020 3.861-0.020 4.381 0 0.42 0.28 0.92 1.1 0.76 6.401-2.099 10.981-8.099 10.981-15.159 0-8.836-7.164-16-16-16z"></path>
</symbol>
<symbol id="icon-linkedin" viewBox="0 0 32 32">
<path d="M27.263 27.269h-4.739v-7.425c0-1.771-0.036-4.049-2.469-4.049-2.471 0-2.848 1.927-2.848 3.919v7.556h-4.739v-15.269h4.552v2.081h0.061c0.636-1.2 2.183-2.467 4.493-2.467 4.801 0 5.689 3.16 5.689 7.273v8.381zM7.116 9.911c-1.525 0-2.751-1.235-2.751-2.753 0-1.517 1.227-2.751 2.751-2.751 1.52 0 2.752 1.233 2.752 2.751 0 1.519-1.233 2.753-2.752 2.753zM9.492 27.269h-4.752v-15.269h4.752v15.269zM29.633 0h-27.272c-1.305 0-2.361 1.032-2.361 2.305v27.389c0 1.275 1.056 2.305 2.361 2.305h27.268c1.304 0 2.371-1.031 2.371-2.305v-27.389c0-1.273-1.067-2.305-2.371-2.305h0.004z"></path>
</symbol>
<symbol id="icon-telegram" viewBox="0 0 32 32">
<path d="M15.925 0c-8.804 0.042-15.925 7.19-15.925 16 0 0 0 0 0 0v0c0 8.837 7.163 16 16 16v0c8.837 0 16-7.163 16-16v0c0-8.837-7.163-16-16-16v0c-0.011-0-0.024-0-0.037-0s-0.026 0-0.039 0h0.002zM22.541 9.632c0.133-0.003 0.428 0.031 0.62 0.187 0.124 0.108 0.208 0.259 0.228 0.43l0 0.003c0.021 0.124 0.048 0.408 0.027 0.629-0.24 2.531-1.283 8.669-1.813 11.503-0.224 1.2-0.665 1.601-1.093 1.64-0.928 0.087-1.633-0.613-2.533-1.203-1.408-0.924-2.204-1.499-3.571-2.4-1.58-1.040-0.556-1.613 0.344-2.547 0.236-0.245 4.329-3.969 4.409-4.307 0.009-0.043 0.019-0.2-0.075-0.283s-0.232-0.055-0.332-0.032c-0.141 0.032-2.391 1.52-6.748 4.46-0.64 0.44-1.217 0.653-1.736 0.64-0.571-0.011-1.669-0.321-2.487-0.587-1.003-0.327-1.799-0.499-1.729-1.052 0.036-0.288 0.433-0.583 1.191-0.884 4.664-2.032 7.773-3.372 9.331-4.019 4.443-1.848 5.367-2.169 5.968-2.18z"></path>
</symbol>
</defs>
</svg>
